<svg xmlns="http://www.w3.org/2000/svg" viewBox="0 0 100 100">
  <defs>
    <style>
      path {
        fill: #545454;
        stroke: none;
      }
    </style>
  </defs>

  <path d="
    M 50 0
    A 50 50 0 0 0 50 100
    A 50 50 0 0 0 50 0
    L 50 8
    A 40 40 0 0 1 50 92
    A 40 40 0 0 1 50 8
    Z

    M 50 24
    A 18 18 0 0 0 50 60
    A 18 18 0 0 0 50 24
    Z
  " />

  <path d="
    M 25 85
    A 18 18 0 0 1 43 67
    L 57 67
    A 18 18 0 0 1 75 85
    A 40 40 0 0 1 25 85
    Z
  " />
</svg>